<svg xmlns="http://www.w3.org/2000/svg" viewBox="0 0 1920 1920">
  <path fill="#e7409a" d="M960 473a486 486 0 10-1 972 486 486 0 001-972zm0 804a317 317 0 111-635 317 317 0 01-1 635zm621-824a113 113 0 11-227 0 114 114 0 01227 0zm322 115c-7-152-42-287-153-398S1504 25 1352 17c-157-9-627-9-784 0-152 7-286 42-398 153C59 281 24 416 17 568c-9 157-9 627 0 784 7 152 42 287 153 398 112 111 246 145 398 153 157 9 627 9 784 0 152-7 287-42 398-153s146-246 153-398c9-157 9-627 0-784zm-202 952c-33 83-97 147-181 181-125 49-422 38-560 38s-435 11-560-38c-83-34-147-98-180-181-50-125-38-422-38-560s-11-435 38-560c33-83 97-147 180-181 125-49 422-38 560-38s436-11 560 38c83 34 147 98 181 181 49 125 38 422 38 560s11 435-38 560z"/>
</svg>
