<svg xmlns="http://www.w3.org/2000/svg" viewBox="0 0 1920 1920">
  <path fill="#e7409a" d="M1706 10H214C101 10 10 101 10 214v1492c0 113 91 204 204 204h1492c113 0 204-91 204-204V214c0-113-91-204-204-204zm-207 673l1 37c0 367-280 791-791 791-158 0-305-46-428-125a584 584 0 00413-115c-122-3-225-83-260-193 43 6 81 6 125-5a278 278 0 01-222-273v-4c36 21 80 34 125 35a278 278 0 01-86-371 790 790 0 00573 290 278 278 0 01475-254c63-11 123-35 176-67-20 65-64 119-122 154 56-6 111-22 161-44-38 56-86 105-140 144z"/>
</svg>
