<svg xmlns="http://www.w3.org/2000/svg" viewBox="0 0 5020 1560">
  <path fill="#7f7f7f" d="M776 8A769 769 0 0010 780c0 426 343 772 766 772 424 0 767-346 767-772S1200 8 776 8zM676 243h200l284 793H955l-46-143H634l-45 143H393zm95 205a3144 3144 0 01-32 112l-60 192h185l-60-192a609 609 0 01-21-70l-9-42zm-388 643h786v139H383zm2880-501l-36 80h47l72-80zm743 0l56 79h68l54-79h-59l-31 40-28-40zm-2012 7l-150 392h83l31-89h154l34 89h84l-154-392zm293 0v392h74v-91l34-37 70 128h80l-102-180 95-104h-91l-86 100V597zm1184 0v392h74V597zm-786 8l-74 43v57h-34v60h34v123c0 27 1 45 3 53 1 13 5 22 10 30 5 7 13 13 23 17 11 5 23 7 36 7 22 0 41-4 59-11l-7-58c-13 4-23 7-29 7-5 0-9-1-13-4-3-2-5-6-6-9-1-4-2-18-2-41V765h51v-60h-51zm-651 83l53 146h-105zm1228 10c-36 0-64 7-82 20s-31 34-39 61l67 12c5-13 11-22 18-27s18-8 31-8c19 0 32 3 39 9s11 17 11 31v8c-13 5-37 11-72 18-25 5-45 11-58 17-14 7-24 17-32 29-8 13-11 27-11 43 0 24 8 44 24 60 17 16 40 24 68 24 17 0 32-3 46-9 15-6 28-16 41-28l2 9 7 22h73c-6-14-11-27-13-38-2-12-4-31-4-56l1-87c0-33-3-55-10-67-6-13-18-23-34-31s-40-12-73-12zm537 0c-37 0-67 16-92 49v-42h-68v284h74V860c0-32 2-53 5-65a58 58 0 0155-39c10 0 19 2 26 7s12 12 15 21c4 9 5 29 5 60v145h74V812c0-22-2-38-4-50a75 75 0 00-45-54c-14-7-29-10-45-10zm294 0c-37 0-67 14-91 40-25 27-37 64-37 111 0 39 10 72 28 98 23 32 59 48 107 48 31 0 56-7 77-21 20-15 35-36 45-63l-74-13c-4 15-10 25-18 31-8 7-17 10-29 10-17 0-31-6-42-19a77 77 0 01-18-52h184c2-57-10-100-34-128s-57-42-98-42zm499 0c-42 0-74 13-99 40-24 26-36 62-36 109 0 46 12 83 36 109s57 39 98 39c36 0 64-9 85-26 22-17 36-43 44-77l-73-12c-3 20-10 34-19 42s-20 12-34 12c-19 0-34-7-45-21s-16-38-16-71c0-31 5-52 16-65s26-19 44-19c14 0 25 3 34 11 8 7 14 18 16 33l73-13c-9-31-23-53-43-68s-47-23-81-23zm-1788 7v179c0 27 4 48 10 63 7 15 18 27 33 36a110 110 0 00143-36v42h68V705h-74v120c0 40-2 66-6 76-3 11-10 19-20 26s-21 11-34 11c-11 0-20-3-27-8s-12-12-15-21-4-34-4-74V705zm1968 0v62h98l34-1-38 42-105 122v59h249v-66h-114l-38 2 37-42 107-125v-53zm-674 51c15 0 27 6 38 17 10 11 16 28 16 49h-110c0-20 5-36 16-48 10-12 23-18 40-18zm-791 96v15c0 18-1 31-3 37-3 10-9 18-18 25-12 9-24 13-38 13-12 0-21-4-29-11-8-8-12-17-12-28 0-10 5-19 15-26 6-4 20-9 40-13 20-5 35-8 45-12zm998 62v75h73v-75z"/>
</svg>
