<svg xmlns="http://www.w3.org/2000/svg" viewBox="0 0 3860 780">
  <path fill="#7f7f7f" d="M2189 294l2-3 1-4 2-3 2-2 1-2 1-2 1-2 1-1 3-5 2-3 2-3 4-7 3-4 2-4 1-1h1l2 1h1l1 2 3 4 3 5 3 7 3 8 4 10v2l2 3 1 4 2 5v1l1 1v2l1 2v3l1 2h-1v2l-1 2-1 1-2 1-3 1h-9l-22 2h-24l-2-1-1-1-1-1-1-1 1-2v-2l1-2 2-3 1-3 2-2 1-2 1-1 1-2v-1zm-143 107l3 1c12 3 18 11 9 22l-8 11-2 3c-2 3-4 6-4 10v2a284 284 0 0026 43c1 2 15-22 16-23l17-20c6-9 14-17 23-23 10-5 21-8 32-9l33-2 66-6c9-1 22-3 29 1a600 600 0 0139 39l24 28 18 14 3 2c11 5 19-2 21-13 3-16-6-32-14-46a303 303 0 01-11-23c-3-6-6-16-1-22 4-5 13-5 19-7l20-5 41-8c8-1 20-7 27 0 9 9 1 25-3 34-5 16-11 32-13 48-1 15 3 32 12 43 7 9 19 17 30 10 9-5 15-16 19-25 8-17 13-35 19-53l17-48 14-34 10-22c2-6 3-14 9-18 8-5 17 9 21 14 7 8 13 18 19 27 7 10 13 23 25 29 19 10 37-13 48-26l23-25 25-28c5-6 12-17 21-17 8 0 9 8 10 14l9 86 6 31 2 15a920 920 0 0016 65c4 12 9 25 19 33 12 11 34 7 42-7l3-10v-21c-2-25-9-50-10-75l2-31c2-24 5-48 6-73 2-29 4-61-4-90a101 101 0 00-11-23 97 97 0 00-14-19 77 77 0 00-19-15c-6-3-15-6-23-6-18-1-37 9-52 19-12 9-23 20-34 30-18 20-37 40-54 62-4 6-10 17-20 16-11-1-17-18-21-27a426 426 0 00-11-25l-16-32c-4-9-8-18-14-25-8-8-17-13-28-16-7-2-17-5-25-1-9 6-8 20-8 29l-2 25c-3 20-4 41-8 60-2 9-5 20-13 26-6 4-13 4-20 4h-17l-38-1-33 2-30 1c-11 1-24 2-34-2-9-4-13-13-17-21-5-11-11-21-18-32l-16-28-25-39a661 661 0 00-17-26c-5-7-11-16-20-19-7-3-15 2-17 10-1 5 1 10-1 14l-5 16-16 28c-19 30-34 63-51 94l-10 17c-5 9-8 15-17 18-9 2-19 1-27 3-11 3-15 12-16 22l-3 26c-1 6-3 13-2 20zM853 576l-27 2c-11-1-17-7-21-16-5-11-7-23-10-35-3-11-5-21-3-33 0-6 1-10 6-14 8-7 19-2 27-7 8-4 10-13 11-21 1-13 0-27-1-40-2-34 0-68-4-101-1-8-4-17-12-19-17-5-18-22-19-36 0-9 0-20 3-29 5-11 18-17 30-21l34-10 36-6 36-6 36-5 34-3 40-2h36l36 1 36 3c17 2 34 5 49 15s26 31 10 46c-15 16-40 13-60 13a1640 1640 0 00-50 1l-48 3a3070 3070 0 00-127 12c-10 2-22 3-29 11-6 5-6 14-4 21 5 14 26 11 37 10 25 0 50-5 75-6l35-2a395 395 0 0178 4c15 3 28 8 42 15 17 6 15 27 12 41-2 7-4 14-11 18-15 9-37 7-53 7l-50 4-79 8-48 6c-11 2-25 0-34 8l-1 1-1 1-1 2-1 2c-1 6-8 28-1 33l1 1h2l26-1 40-2 77-6 51-4a1572 1572 0 0176-5c15 0 30 0 44-6 17-8 30-21 47-29l62-30c26-12 51-26 77-37l60-26c10-4 20-8 29-14 6-3 23-11 19-21-2-5-9-6-14-7-19-2-67 2-97 6-47 8-54 14-67 1-10-10-8-25-6-38 1-14 8-35 12-40 14-18 60-20 81-21l33-1h46a718 718 0 0140 3c15 2 32 2 47 7l14 5c15 7 29 16 39 29a63 63 0 0113 40c0 4-1 11-3 14l-1 1c-2 4-6 8-10 12-18 15-44 21-66 30l-32 14-90 40c-25 10-50 20-74 32-6 4-16 9-20 15-4 7 5 7 10 7h19l55-5 57-7 53-6a556 556 0 0158-3c19 0 38 0 57 4h8c8 0 17-1 21-9 6-13 10-28 15-42l19-54 3-7 23-60 9-24c2-6 3-13 6-19 5-9 14-15 23-8 8 5 14 15 19 23l11 28c2 10 0 19-3 28-4 10-8 20-10 30-6 21 15 38 32 48 14 9 31 15 47 21 12 5 24 10 36 13 8 1 17 3 24-2 11-8 14-23 18-35l11-44a316 316 0 008-68v-38c0-8 1-19 7-25 8-9 21-5 27 4l3 3c4 6 6 13 9 20a490 490 0 0110 73c1 39-2 77-7 115l-12 60c-3 11-5 23-9 33a79 79 0 01-13 19l-8 7c-11 7-24 6-36 5-17-1-33-6-49-11a324 324 0 01-29-12c-9-5-19-9-28-15a309 309 0 01-28-17c-8-6-17-12-24-19l-17-22c-6-7-11-9-15 0l-5 20-10 35c-4 12-19 43-35 28-6-4-10-10-18-10s-16 3-24 5l-26 4-48 11-32 5-32 5-32 4-50 6-40 5-34 3a901 901 0 01-56 4c-28 1-58 3-86-3-6-1-15-2-20-6-3-4 0-9-3-13v-1l-2-1-1-1h-4l-1 1-2 1-2 1-1 2-2 2v3c-6 19-27 26-46 29l-298 34m2789-150c-39 3-76 10-116 6-13-1-35-2-46-9-31-21 80-58 94-63 38-13 116-35 116-35s73-18 75-57c3-48-46-69-84-81a401 401 0 00-47-7 488 488 0 00-32-2c-20-1-40 1-60 3-21 3-65 4-71 30-3 13-18 40-6 52 13 12 35 7 51 5l68-8c16-2 38-5 52 7 16 15-28 29-37 32-34 15-69 25-102 39-32 13-64 25-94 40-14 6-28 14-41 22l-6-4-39 4-39 3-78 4c-13 1-34 1-44-8-23-21-10-50 5-71 16-22 39-38 62-52a226 226 0 0188-31l5 10c1 2 31-10 33-11 9-5 22-14 22-25 0-14-11-27-22-34-12-7-26-10-40-10l-45 3a222 222 0 00-32 6c-17 5-33 12-49 20a242 242 0 00-57 44 156 156 0 00-20 27c-8 12-13 26-18 39-12 38-8 85 9 120 12 25 30 46 54 60 29 18 66 24 100 17a203 203 0 0040-11c14-6 27-10 40-17 3-1 30-17 32-15 4 6 6 12 11 18l16 13c11 9 24 12 38 14a1007 1007 0 00189 2l54-6c45-5 83-15 132-36a137 137 0 0047-35 110 110 0 00-17-9c-36-14-77-15-115-10a1430 1430 0 01-76 7m-608 41c0-7-1-13-3-19-5-13-19-26-33-29-13-2-28 0-39 8-5 5-12 12-15 18-6 15-5 36 4 49 16 22 50 22 69 4 9-8 16-19 17-31M387 50a1236 1236 0 00-65 12l-42 9-39 10a622 622 0 00-36 13 232 232 0 00-64 37c-12 10-23 21-32 33a231 231 0 00-17 27c-5 9-8 20-8 31-1 30 19 56 42 75l23 17c24 17 50 31 76 44 27 12 54 25 82 36 26 11 52 21 79 30l24 7 73 24c15 6 31 11 46 18 16 7 32 14 46 24a85 85 0 0123 25c6 9 10 20 10 31a53 53 0 01-9 30c-15 24-41 40-67 51a1097 1097 0 01-116 41l-68 19-69 18-69 16-39 8-24 5-50 10-56 13-17 3c-4 2-23 6-9 5 19-1 69-5 177-20l117-18a2094 2094 0 00145-28 1243 1243 0 00180-57c55-24 89-42 106-84 6-15 9-32 7-48a109 109 0 00-14-43c-8-13-18-23-29-33-20-18-42-33-66-45a419 419 0 00-21-10 930 930 0 00-26-11 619 619 0 00-37-14l-99-32a702 702 0 01-55-20 428 428 0 01-23-10l-26-14c-10-6-27-17-22-31 3-11 14-15 24-18 8-4 17-6 26-9l83-17a1328 1328 0 0024-5c22-5 44-9 64-17 18-7 40-18 47-37 9-28-1-58-17-82a817 817 0 00-17-25l-26-32c-4-5-8-5-13-3s-20 19-137 41"/>
</svg>
