<svg xmlns="http://www.w3.org/2000/svg" version="1.1" viewBox="0 0 1926 390">
  <path fill="#7f7f7f" d="M353 339l-62-62c26-29 41-68 41-110a165 165 0 10-87 146l67 66c11 11 29 11 40 0s11-29 1-40zM50 167a119 119 0 01184-99l-68 110-29-37c-4-6-11-9-18-9-5 0-9 2-13 5-10 8-12 22-4 31l47 62c4 6 11 9 18 9h1c6 0 13-4 17-11l81-128a119 119 0 01-97 186c-65-1-119-54-119-119zm630 167a27 27 0 11-54 0V222H494v111a27 27 0 11-54 0V68a27 27 0 1154 0v105h133V68a27 27 0 1154 0zm143-194c78 0 93 60 93 92 0 18 0 37-29 37H772c0 33 23 48 54 48 21 0 35-6 46-14 5-3 9-5 14-5 12 0 22 10 22 21 0 8-4 14-8 18-8 8-32 25-75 25-63 0-104-35-104-112 1-70 39-110 102-110m-50 87h92c0-22-12-44-42-44-28 0-47 15-50 44m224-59v108c0 21 8 41 42 41 33 0 41-20 41-41V168c0-13 11-25 25-25s26 11 26 25v108c0 45-18 87-91 87-75 0-92-42-92-87V168c0-13 10-25 25-25 13 0 24 11 24 25m228 2c8-18 31-30 50-30 13 0 23 11 23 23 0 13-10 24-23 24-32 0-50 20-50 51v96c0 13-11 25-26 25-13 0-25-11-25-25V168c0-13 11-25 25-25s26 11 26 25zm186-30c78 0 93 60 93 92 0 18 0 37-29 37h-115c0 33 23 48 54 48 21 0 35-6 46-14 5-3 9-5 14-5 12 0 22 10 22 21 0 8-4 14-8 18-8 8-32 25-75 25-63 0-104-35-104-112 2-70 39-110 102-110m-49 87h92c0-22-12-44-42-44-29 0-48 15-50 44m312 123l-69-93-14 12v67c0 13-11 24-25 24-15 0-26-11-26-24V51c0-14 11-24 26-24 13 0 25 10 25 24v164l84-66c6-5 11-6 16-6 14 0 25 11 25 24 0 7-3 15-10 20l-61 46 68 89c4 5 5 11 5 15 0 13-11 24-25 24-8-1-15-5-19-11m110-148c-4 3-8 5-13 5-12 0-21-10-21-21 0-5 2-11 5-16 13-14 36-30 76-30 57 0 92 28 92 78v118c0 13-11 24-24 24-14 0-24-11-24-24-13 20-33 27-61 27-46 0-76-28-76-70s35-65 75-65h61v-8c0-22-16-35-43-35-21 0-36 8-47 17m89 78v-13h-55c-20 0-32 10-32 26 0 18 13 28 39 28 24 0 48-15 48-41"/>
</svg>
