<svg xmlns="http://www.w3.org/2000/svg" viewBox="0 0 1930 490">
  <path fill="#7f7f7f" d="M519 137c111 0 166 75 166 175 0 94-62 174-173 174s-165-75-165-174c0-96 62-174 173-174zm-6 22c-49 0-62 66-62 153 0 86 22 152 66 152 51 0 64-66 64-152s-22-153-68-153zm823 154c0-91 57-177 170-177 92 0 136 69 136 159h-205c-2 82 39 142 117 142 27 1 54-8 75-25l9 11a171 171 0 01-302-110zm101-42l104-2c0-44-7-110-44-110-38 0-58 62-60 113zm469-116c-33-13-67-19-102-18-81 0-132 49-132 106s38 82 90 99c52 18 71 36 71 62 0 30-25 53-55 51-42 0-73-24-97-91l-16 5 2 97c37 13 77 19 117 19 86 0 141-44 141-113 0-46-24-73-82-95-61-24-84-40-84-68-1-27 20-49 47-49 40 0 66 24 86 84l15-4zm-934-9c-39-22-104-11-139 68l2-76-148 28v13l15 3c20 2 29 13 31 42 4 64 4 128 0 192-2 26-11 39-31 41l-15 3v17h205v-17l-26-3c-22-2-29-15-31-41-4-60-5-120-2-179 11-16 59-29 103 0l36-91zm203-4c-28-1-55 6-80 19 0-71 0-135 2-157L950 31v13l15 3c19 4 26 15 31 42 4 53 2 335 0 381 40 10 82 15 123 16 117 0 188-73 188-188 0-90-58-156-132-156zm-51 319c-9 1-18 0-27-2-2-31-4-161-2-276 11-3 22-5 33-5 49 0 75 57 75 128 0 88-33 156-79 156zM393 14H5v19l22 2c29 4 40 22 44 64 6 97 6 194 0 291-4 42-15 62-44 64l-22 5v18h250v-18l-27-4c-29-2-40-22-44-64-2-29-4-75-4-132l53 2c33 0 48 26 55 64h19V168h-19c-7 39-22 64-55 64l-54 3c0-75 3-145 5-187h77c59 0 90 38 112 103l22-6z"/>
</svg>
