<svg xmlns="http://www.w3.org/2000/svg" viewBox="0 0 1920 1400">
  <path fill="#cacaca" d="M1006 1383l20-209c339-75 509-215 509-419 0-59-55-122-163-190s-161-153-161-254c0-89 28-160 85-214 57-53 132-80 224-80 109 0 202 37 278 112 75 76 112 175 112 297 0 240-77 445-231 614-155 169-379 283-673 343zm-996 0l19-209c340-77 510-216 510-419 0-59-55-122-164-190-107-68-160-153-160-254 0-89 28-160 85-214 55-53 130-80 224-80 110 0 203 37 278 112 73 76 109 175 109 297 0 244-77 449-231 616-154 169-378 283-670 341z"/>
</svg>
