<svg version="1" xmlns="http://www.w3.org/2000/svg" width="933.333" height="933.333" viewBox="0 0 700.000000 700.000000"><path d="M465.9 93.4c-.2.2-3.3.7-6.9 1-12.5 1.2-16.6 1.8-28 4.3-50.4 10.9-88.2 35.9-113.3 74.8-15.9 24.8-26.8 58.7-29.4 91.8-1.3 16.5-.7 50.4 1.2 60.6.1.9.6 3.8.9 6.4 3.8 26 12.7 52.1 24.5 71.7 29.2 48.7 79.9 76.8 147.1 81.5 9.2.7 39.7.7 46.5 0 2.8-.2 7.7-.7 11-1 10.6-.9 29.7-4.3 41.5-7.4 20.4-5.2 54.9-18.1 55.1-20.5 0-.6.1-23.8.3-51.6.2-48.2.3-50.8 2.3-56.8 4.3-12.8 11.7-18 27.1-18.7l8.7-.4.3-14.1.3-14H486.4l-.1 14v14l3.1.1c14.8.5 19.7 1.4 26 4.6 8.3 4 13.3 11 15.2 20.8.4 2.2.8 23.7.9 47.8l.2 43.7-3.7 1c-8.4 2.3-42.2 3.3-55 1.8-39.8-4.9-66.3-25.5-81.4-63.1-3.6-8.8-9-29.4-10.1-37.7-.3-2.5-.7-5.6-1-7-3.9-21.2-3.9-80.5.1-105.5.2-1.7.7-4.6 1-6.5 2.7-17 8.8-37.8 14.7-49.5 17.3-34.8 47.6-52.5 88.7-51.9 12.7.1 17.1.8 25.3 3.5 24.6 8.2 39.2 29.9 41.1 60.9.3 3.6.5 7 .5 7.7.2 2.5 24.2-.2 34.1-3.8 11.5-4.2 16.5-7.3 23.5-14.3 5.5-5.6 7.4-8.4 9.1-13.1 5.1-14.8 1.9-29.1-9.3-41.5-10.5-11.4-26.5-19.9-49.6-26-4.3-1.1-9.3-2.2-11-2.5-1.8-.2-5.5-.9-8.4-1.4-2.9-.6-7.1-1.3-9.5-1.6-2.4-.3-5.9-.8-7.8-1.1-4.1-.6-56.5-1.5-57.1-1zM77.6 99c-.1.3-.2 6.6-.1 14l.1 13.5 12.5.1c18.9.2 24 1.3 29.3 6.2 3.8 3.6 6.4 10 7.3 18 1 8.3.9 337.4-.1 349.2-.9 11.1-3.2 22.8-6.3 31.5-11 30.8-30.4 46.1-59.8 47-4.9.2-9.3.4-9.8.4-.4.1-.7 7.1-.6 15.6l.1 15.5 20.6-.5c11.4-.3 21.8-.7 23.2-.9 14.7-2.3 23.5-3.8 24-4.1.4-.2 2.2-.7 4.1-1 5.4-1 17.7-5.4 26.4-9.5 15-7.2 29.8-18.6 38.7-30 10.7-13.6 19.9-34.8 22.3-51.5.3-2.2.8-4.6 1.1-5.3 1.3-3.9 1.6-39.3 1.8-192.2l.1-167.5 2.3-5.5c5.3-12.9 10.7-15.3 34.8-15.3 8.2 0 12.4-.3 12.6-1.1.2-.6.3-7 .3-14.1v-13h-92.3c-50.8-.1-92.5.2-92.6.5z"/></svg>